<svg xmlns="http://www.w3.org/2000/svg" width="600" height="780" viewBox="0 0 600 780"><rect width="600" height="780" fill="#efe9d8"/><line x1="0" y1="110" x2="600" y2="110" stroke="#c8d0da"/><line x1="0" y1="148" x2="600" y2="148" stroke="#c8d0da"/><line x1="0" y1="186" x2="600" y2="186" stroke="#c8d0da"/><line x1="0" y1="224" x2="600" y2="224" stroke="#c8d0da"/><line x1="0" y1="262" x2="600" y2="262" stroke="#c8d0da"/><line x1="0" y1="300" x2="600" y2="300" stroke="#c8d0da"/><line x1="0" y1="338" x2="600" y2="338" stroke="#c8d0da"/><line x1="0" y1="376" x2="600" y2="376" stroke="#c8d0da"/><line x1="0" y1="414" x2="600" y2="414" stroke="#c8d0da"/><line x1="0" y1="452" x2="600" y2="452" stroke="#c8d0da"/><line x1="0" y1="490" x2="600" y2="490" stroke="#c8d0da"/><line x1="0" y1="528" x2="600" y2="528" stroke="#c8d0da"/><line x1="0" y1="566" x2="600" y2="566" stroke="#c8d0da"/><line x1="0" y1="604" x2="600" y2="604" stroke="#c8d0da"/><line x1="0" y1="642" x2="600" y2="642" stroke="#c8d0da"/><line x1="0" y1="680" x2="600" y2="680" stroke="#c8d0da"/><line x1="0" y1="718" x2="600" y2="718" stroke="#c8d0da"/><line x1="0" y1="756" x2="600" y2="756" stroke="#c8d0da"/><line x1="70" y1="0" x2="70" y2="780" stroke="#d99a9a"/><text x="90" y="80" font-size="34" font-family="Bradley Hand,Segoe Script,Noteworthy,Comic Sans MS,cursive" fill="#22314f" font-weight="700" text-decoration="underline">Topology & qubits</text><text x="90" y="160" font-size="25" font-family="Bradley Hand,Segoe Script,Noteworthy,Comic Sans MS,cursive" fill="#22314f">invariant under deformation</text><text x="90" y="236" font-size="25" font-family="Bradley Hand,Segoe Script,Noteworthy,Comic Sans MS,cursive" fill="#22314f">braids of anyons</text><text x="90" y="312" font-size="25" font-family="Bradley Hand,Segoe Script,Noteworthy,Comic Sans MS,cursive" fill="#22314f">→ fault-tolerant gates</text><path d="M110 620 Q220 500 320 580 T500 520" fill="none" stroke="#22314f" stroke-width="3"/></svg>